<?xml version="1.0" encoding="UTF-8" standalone="no"?>
<svg
   xmlns:dc="http://purl.org/dc/elements/1.1/"
   xmlns:cc="http://creativecommons.org/ns#"
   xmlns:rdf="http://www.w3.org/1999/02/22-rdf-syntax-ns#"
   xmlns:svg="http://www.w3.org/2000/svg"
   xmlns="http://www.w3.org/2000/svg"
   xmlns:sodipodi="http://sodipodi.sourceforge.net/DTD/sodipodi-0.dtd"
   xmlns:inkscape="http://www.inkscape.org/namespaces/inkscape"
   width="607.13641"
   height="15.350981"
   id="svg2"
   version="1.1"
   inkscape:version="0.91 r13725"
   sodipodi:docname="divider.svg">
  <defs
     id="defs17" />
  <sodipodi:namedview
     pagecolor="#ffffff"
     bordercolor="#666666"
     borderopacity="1"
     objecttolerance="10"
     gridtolerance="10"
     guidetolerance="10"
     inkscape:pageopacity="0"
     inkscape:pageshadow="2"
     inkscape:window-width="1384"
     inkscape:window-height="874"
     id="namedview15"
     showgrid="false"
     fit-margin-top="0"
     fit-margin-left="0"
     fit-margin-right="0"
     fit-margin-bottom="0"
     inkscape:showpageshadow="false"
     inkscape:zoom="0.98333331"
     inkscape:cx="334.85366"
     inkscape:cy="-19.998997"
     inkscape:window-x="515"
     inkscape:window-y="95"
     inkscape:window-maximized="0"
     inkscape:current-layer="g2388" />
  <title
     id="title4">Wilmington Divider</title>
  <metadata
     id="metadata11">image/svg+xmlIceHandOrnamental Divider / Englische Liniedividerornamentenglische linie2009-03-21<rdf:RDF>
  <cc:Work
     rdf:about="">
    <dc:format>image/svg+xml</dc:format>
    <dc:type
       rdf:resource="http://purl.org/dc/dcmitype/StillImage" />
    <dc:title>Wilmington Divider</dc:title>
  </cc:Work>
</rdf:RDF>
</metadata>
  <g
     id="g7"
     transform="translate(-14.886713,-228.99454)"
     style="fill:#e1e1e1;fill-opacity:1">
    <title
       id="title9">Layer 1</title>
    <g
       id="g2388"
       style="fill:#e1e1e1;fill-opacity:1">
      <path
         id="path6"
         d="m 309.43074,234.96431 c 0.59314,-1.33867 1.50953,-2.57878 2.7033,-3.59229 0.9156,-0.77713 1.9995,-1.41927 3.20018,-1.83848 0.99925,-0.35022 2.07862,-0.54011 3.16097,-0.539 1.08225,-0.001 2.16165,0.18878 3.1609,0.539 1.20074,0.41921 2.28458,1.06135 3.20021,1.83848 1.19377,1.01351 2.1101,2.25362 2.70333,3.59229 0.1931,0.95007 0.2885,1.91802 0.21866,2.88161 -0.0335,0.46447 -0.10525,0.92715 -0.21866,1.38251 -0.22308,0.76072 -0.61909,1.48543 -1.16717,2.1175 -0.61555,0.71352 -1.41589,1.30603 -2.30903,1.75988 -1.07948,0.5492 -2.28841,0.90386 -3.52632,1.0884 -1.4377,0.21294 -2.92169,0.20134 -4.35411,-0.0362 -1.21555,-0.20282 -2.39882,-0.57242 -3.44956,-1.13205 -0.86917,-0.46233 -1.64323,-1.05982 -2.23398,-1.77247 -0.51519,-0.61912 -0.88846,-1.32209 -1.09758,-2.05827 -0.21729,-0.81851 -0.34264,-1.6586 -0.3072,-2.49853 0.024,-0.5853 0.12734,-1.16867 0.31606,-1.7323 z m 15.10742,1.70565 c -4.0287,0 -8.05732,0 -12.08596,0 -7e-4,0.73214 0.14194,1.46968 0.4738,2.14801 0.29917,0.61626 0.7566,1.17747 1.3356,1.62904 0.6823,0.53504 1.5243,0.91586 2.41766,1.12878 1.29297,0.30842 2.69683,0.27937 3.96827,-0.089 0.84584,-0.24486 1.63223,-0.64651 2.26059,-1.18681 0.55067,-0.47073 0.97399,-1.04541 1.24159,-1.66751 0.27157,-0.62665 0.38892,-1.29647 0.38845,-1.96251 z"
         inkscape:connector-curvature="0"
         style="fill:#e1e1e1;fill-opacity:1" />
      <g
         id="g4141">
        <path
           style="fill:#e1e1e1;fill-opacity:1"
           inkscape:connector-curvature="0"
           d="m 19.90519,236.01075 c 91.49623,-2.22239 182.99255,-4.44479 274.48873,-6.66719 2.57004,-0.005 5.18744,0.33828 7.37174,1.14681 2.12512,0.77397 3.75109,1.9633 4.72735,3.29882 0.33545,0.46111 0.62161,0.93722 0.80902,1.42593 0.27521,1.3696 0.31961,2.76133 -0.008,4.12924 -0.90906,1.5609 -2.73621,2.9324 -5.08347,3.85318 -2.01486,0.79201 -4.4696,1.21704 -6.90475,1.13619 -91.80026,-1.94092 -183.60055,-3.88183 -275.400781,-5.82277 -1.232639,-0.008 -2.48292,-0.10923 -3.627831,-0.38464 -0.523419,-0.13556 -1.084589,-0.31968 -1.316369,-0.64205 -0.14558,-0.235 -0.06209,-0.50327 0.12364,-0.72261 0.33171,-0.36409 1.037391,-0.53436 1.69374,-0.62214 1.02441,-0.13316 2.08297,-0.12655 3.12682,-0.12877 z m 281.65551,0.83341 c -59.24561,0 -118.49117,0 -177.73676,0 -0.0176,0.41436 0.37552,0.80516 0.94445,1.0442 0.8891,0.37939 2.00116,0.52518 3.07923,0.59369 0.68619,0.0371 1.37615,0.0299 2.06443,0.0451 54.82727,0.82801 109.65457,1.65601 164.4819,2.48402 1.68607,0.005 3.41666,-0.27256 4.73316,-0.90261 1.2463,-0.5846 2.03585,-1.45626 2.30203,-2.36752 0.0902,-0.29585 0.13156,-0.59648 0.13156,-0.89687 z"
           id="path2380" />
        <path
           style="fill:#e1e1e1;fill-opacity:1"
           inkscape:connector-curvature="0"
           d="m 617.0047,236.01076 c -91.49628,-2.2224 -182.99256,-4.4448 -274.48886,-6.66719 -2.57004,-0.006 -5.18738,0.33828 -7.37177,1.14681 -2.12509,0.77397 -3.75106,1.9633 -4.72732,3.29882 -0.33542,0.46111 -0.62161,0.93721 -0.80899,1.42593 -0.27527,1.36959 -0.31964,2.76132 0.008,4.12923 0.90909,1.5609 2.73627,2.9324 5.08344,3.85318 2.01492,0.79201 4.46972,1.21704 6.90484,1.13619 91.80026,-1.94092 183.60056,-3.88183 275.40085,-5.82276 1.23267,-0.008 2.48279,-0.10924 3.62781,-0.38465 0.52344,-0.13556 1.08453,-0.31967 1.31634,-0.64205 0.14557,-0.235 0.062,-0.50327 -0.12359,-0.7226 -0.33173,-0.36409 -1.03742,-0.53436 -1.69385,-0.62215 -1.02429,-0.13315 -2.08301,-0.12655 -3.12671,-0.12876 z m -281.65567,0.8334 c 59.24567,0 118.4913,0 177.73685,0 0.0176,0.41437 -0.37543,0.80516 -0.9444,1.04421 -0.88898,0.37939 -2.00128,0.52517 -3.07916,0.59368 -0.68628,0.0371 -1.37629,0.0299 -2.06446,0.0451 -54.8273,0.82801 -109.65472,1.656 -164.48202,2.48401 -1.68604,0.005 -3.41666,-0.27256 -4.73316,-0.9026 -1.24633,-0.58461 -2.03588,-1.45627 -2.30203,-2.36752 -0.0901,-0.29586 -0.13162,-0.59648 -0.13162,-0.89688 z"
           id="path2386" />
      </g>
    </g>
  </g>
</svg>
