<?xml version="1.0" encoding="UTF-8" standalone="no"?>
<!-- Created with Inkscape (http://www.inkscape.org/) -->

<svg
   xmlns:dc="http://purl.org/dc/elements/1.1/"
   xmlns:cc="http://creativecommons.org/ns#"
   xmlns:rdf="http://www.w3.org/1999/02/22-rdf-syntax-ns#"
   xmlns:svg="http://www.w3.org/2000/svg"
   xmlns="http://www.w3.org/2000/svg"
   xmlns:sodipodi="http://sodipodi.sourceforge.net/DTD/sodipodi-0.dtd"
   xmlns:inkscape="http://www.inkscape.org/namespaces/inkscape"
   width="118.33174mm"
   height="36.084126mm"
   viewBox="0 0 419.2857 127.85714"
   id="svg2"
   version="1.1"
   inkscape:version="0.91 r13725"
   sodipodi:docname="mixnode.svg">
  <defs
     id="defs4">
    <inkscape:path-effect
       effect="spiro"
       id="path-effect4269"
       is_visible="true" />
    <inkscape:path-effect
       is_visible="true"
       id="path-effect4265"
       effect="spiro" />
    <inkscape:path-effect
       is_visible="true"
       id="path-effect4177"
       effect="spiro" />
    <inkscape:path-effect
       effect="spiro"
       id="path-effect4173"
       is_visible="true" />
    <inkscape:path-effect
       effect="spiro"
       id="path-effect4169"
       is_visible="true" />
    <inkscape:path-effect
       effect="spiro"
       id="path-effect4165"
       is_visible="true" />
  </defs>
  <sodipodi:namedview
     id="base"
     pagecolor="#ffffff"
     bordercolor="#666666"
     borderopacity="1.0"
     inkscape:pageopacity="0.0"
     inkscape:pageshadow="2"
     inkscape:zoom="1.979899"
     inkscape:cx="250.87052"
     inkscape:cy="17.251466"
     inkscape:document-units="px"
     inkscape:current-layer="layer1"
     showgrid="false"
     showguides="false"
     inkscape:window-width="1920"
     inkscape:window-height="1025"
     inkscape:window-x="0"
     inkscape:window-y="0"
     inkscape:window-maximized="1"
     fit-margin-top="0"
     fit-margin-left="0"
     fit-margin-right="0"
     fit-margin-bottom="0" />
  <metadata
     id="metadata7">
    <rdf:RDF>
      <cc:Work
         rdf:about="">
        <dc:format>image/svg+xml</dc:format>
        <dc:type
           rdf:resource="http://purl.org/dc/dcmitype/StillImage" />
        <dc:title></dc:title>
      </cc:Work>
    </rdf:RDF>
  </metadata>
  <g
     inkscape:label="Layer 1"
     inkscape:groupmode="layer"
     id="layer1"
     transform="translate(-142.20668,348.68726)">
    <path
       inkscape:connector-curvature="0"
       id="path4314"
       style="font-style:normal;font-variant:normal;font-weight:800;font-stretch:normal;font-size:medium;line-height:125%;font-family:Overpass;-inkscape-font-specification:'Overpass Ultra-Bold';letter-spacing:0px;word-spacing:0px;fill:#292c33;fill-opacity:1;stroke:none;stroke-width:1px;stroke-linecap:butt;stroke-linejoin:miter;stroke-opacity:1"
       d="m 270.02585,-271.27688 0,-42.86921 -7.90018,0 -10.71731,23.63931 c -0.42869,0.97987 -0.79614,2.02097 -1.10235,2.9396 -0.30621,-0.91863 -0.67366,-1.95973 -1.10235,-2.9396 l -10.53358,-23.63931 -8.39011,0 0,42.86921 8.26763,0 0,-22.04702 c 0,-0.91863 -0.0612,-2.38843 -0.12248,-3.3683 0.42869,1.22484 0.85738,2.38843 1.28607,3.3683 l 10.47234,22.78192 10.41109,-22.78192 c 0.42869,-0.97987 0.85739,-2.14346 1.28608,-3.3683 -0.0612,0.97987 -0.12248,2.44967 -0.12248,3.3683 l 0,22.04702 8.26763,0 z" />
    <path
       inkscape:connector-curvature="0"
       id="path4316"
       style="font-style:normal;font-variant:normal;font-weight:800;font-stretch:normal;font-size:medium;line-height:125%;font-family:Overpass;-inkscape-font-specification:'Overpass Ultra-Bold';letter-spacing:0px;word-spacing:0px;fill:#292c33;fill-opacity:1;stroke:none;stroke-width:1px;stroke-linecap:butt;stroke-linejoin:miter;stroke-opacity:1"
       d="m 283.53534,-306.24591 c 2.63339,0 4.65437,-2.08222 4.65437,-4.65437 0,-2.57215 -2.02098,-4.59312 -4.65437,-4.59312 -2.57216,0 -4.65438,2.02097 -4.65438,4.59312 0,2.57215 2.08222,4.65437 4.65438,4.65437 z m -3.98072,34.96903 7.96143,0 0,-31.29452 -7.96143,0 0,31.29452 z" />
    <path
       inkscape:connector-curvature="0"
       id="path4318"
       style="font-style:normal;font-variant:normal;font-weight:800;font-stretch:normal;font-size:medium;line-height:125%;font-family:Overpass;-inkscape-font-specification:'Overpass Ultra-Bold';letter-spacing:0px;word-spacing:0px;fill:#292c33;fill-opacity:1;stroke:none;stroke-width:1px;stroke-linecap:butt;stroke-linejoin:miter;stroke-opacity:1"
       d="m 293.96174,-271.27688 9.2475,0 4.89934,-7.0428 c 0.67366,-0.97987 1.4698,-2.08222 1.77601,-2.87836 0.42869,0.79614 1.10235,1.95974 1.77601,2.87836 l 4.96058,7.0428 9.2475,0 -11.32972,-16.22906 10.53358,-15.06546 -9.2475,0 -4.16444,5.94044 c -0.67366,0.91863 -1.34732,2.08222 -1.77601,2.87837 -0.30621,-0.79615 -1.10235,-1.8985 -1.77601,-2.87837 l -4.1032,-5.94044 -9.2475,0 10.53358,15.06546 -11.32972,16.22906 z" />
    <path
       inkscape:connector-curvature="0"
       id="path4320"
       style="font-style:normal;font-variant:normal;font-weight:800;font-stretch:normal;font-size:medium;line-height:125%;font-family:Overpass;-inkscape-font-specification:'Overpass Ultra-Bold';letter-spacing:0px;word-spacing:0px;fill:#292c33;fill-opacity:1;stroke:none;stroke-width:1px;stroke-linecap:butt;stroke-linejoin:miter;stroke-opacity:1"
       d="m 366.72173,-271.27688 0,-42.86921 -8.2064,0 0,24.68042 c 0,0.79614 0.0612,2.26594 0.18373,3.24581 -0.48993,-1.04111 -1.28608,-2.44967 -1.77601,-3.24581 l -16.59651,-24.68042 -7.7777,0 0,42.86921 8.20639,0 0,-24.98662 c 0,-0.91863 -0.0612,-2.20471 -0.18372,-3.24582 0.48993,1.04111 1.28607,2.51091 1.77601,3.24582 l 17.0252,24.98662 7.34901,0 z" />
    <path
       inkscape:connector-curvature="0"
       id="path4322"
       style="font-style:normal;font-variant:normal;font-weight:800;font-stretch:normal;font-size:medium;line-height:125%;font-family:Overpass;-inkscape-font-specification:'Overpass Ultra-Bold';letter-spacing:0px;word-spacing:0px;fill:#292c33;fill-opacity:1;stroke:none;stroke-width:1px;stroke-linecap:butt;stroke-linejoin:miter;stroke-opacity:1"
       d="m 389.12089,-270.54198 c 8.81881,0 14.3918,-6.06293 14.3918,-16.35154 0,-10.16613 -5.57299,-16.41278 -14.3918,-16.41278 -8.81881,0 -14.39181,6.24665 -14.39181,16.41278 0,10.28861 5.573,16.35154 14.39181,16.35154 z m 0,-7.65521 c -3.91947,0 -6.43038,-3.24582 -6.43038,-8.69633 0,-5.45051 2.51091,-8.75757 6.43038,-8.75757 4.04195,0 6.43038,3.30706 6.43038,8.75757 0,5.45051 -2.38843,8.69633 -6.43038,8.69633 z" />
    <path
       inkscape:connector-curvature="0"
       id="path4324"
       style="font-style:normal;font-variant:normal;font-weight:800;font-stretch:normal;font-size:medium;line-height:125%;font-family:Overpass;-inkscape-font-specification:'Overpass Ultra-Bold';letter-spacing:0px;word-spacing:0px;fill:#292c33;fill-opacity:1;stroke:none;stroke-width:1px;stroke-linecap:butt;stroke-linejoin:miter;stroke-opacity:1"
       d="m 422.57803,-270.54198 c 3.18457,0 5.45051,-1.10235 6.73659,-3.00084 l 0,2.26594 7.96143,0 0,-44.21652 -7.96143,3.61325 0,11.57469 c -1.40856,-1.77601 -3.55202,-3.00084 -6.67535,-3.00084 -7.47149,0 -12.98324,6.24665 -12.98324,16.35154 0,10.59482 5.08306,16.41278 12.922,16.41278 z m 1.28608,-7.65521 c -4.1032,0 -6.24666,-3.3683 -6.24666,-8.75757 0,-5.63424 2.26594,-8.69633 6.24666,-8.69633 2.75587,0 4.59313,1.40856 5.45051,2.57216 l 0,12.37082 c -1.16359,1.65353 -2.81712,2.51092 -5.45051,2.51092 z" />
    <path
       inkscape:connector-curvature="0"
       id="path4326"
       style="font-style:normal;font-variant:normal;font-weight:800;font-stretch:normal;font-size:medium;line-height:125%;font-family:Overpass;-inkscape-font-specification:'Overpass Ultra-Bold';letter-spacing:0px;word-spacing:0px;fill:#292c33;fill-opacity:1;stroke:none;stroke-width:1px;stroke-linecap:butt;stroke-linejoin:miter;stroke-opacity:1"
       d="m 459.57853,-270.54198 c 5.20555,0 9.00254,-2.08222 11.63593,-5.26679 l -4.89934,-4.96058 c -1.77601,2.26595 -3.85823,3.24581 -6.73659,3.24581 -3.42953,0 -6.49162,-2.26594 -6.79783,-6.30789 l 20.3935,0 c 0.24496,-1.71477 0.24496,-3.49078 0.24496,-4.71562 0,-10.04364 -6.12417,-14.75925 -13.84063,-14.75925 -8.94129,0 -14.63677,6.24665 -14.63677,16.35154 0,10.28861 5.573,16.41278 14.63677,16.41278 z m -6.73659,-20.02604 c 0.48994,-3.91947 3.00085,-5.75673 6.73659,-5.75673 3.18457,0 5.573,2.08222 6.06293,5.75673 l -12.79952,0 z" />
    <g
       id="g4360"
       style="fill:#c3c8cf;fill-opacity:1">
      <path
         id="rect4157"
         d="m 534.11435,-301.37344 21.21321,0 c 2.51831,0 4.54568,2.02737 4.54568,4.54568 l 0,17.1726 c 0,2.51831 -2.02737,4.54568 -4.54568,4.54568 l -21.21321,0 c -2.51831,0 -4.54569,-2.02737 -4.54569,-4.54568 l 0,-17.1726 c 0,-2.51831 2.02738,-4.54568 4.54569,-4.54568 z"
         style="opacity:1;fill:#c3c8cf;fill-opacity:1;stroke:none;stroke-width:6.06699991;stroke-linejoin:miter;stroke-miterlimit:4;stroke-dasharray:none;stroke-opacity:1" />
      <path
         id="rect4159"
         d="m 224.82556,-256.4873 21.21321,0 c 2.51831,0 4.54568,2.02737 4.54568,4.54568 l 0,17.1726 c 0,2.51831 -2.02737,4.54568 -4.54568,4.54568 l -21.21321,0 c -2.51831,0 -4.54568,-2.02737 -4.54568,-4.54568 l 0,-17.1726 c 0,-2.51831 2.02737,-4.54568 4.54568,-4.54568 z"
         style="opacity:1;fill:#c3c8cf;fill-opacity:1;stroke:none;stroke-width:6.06699991;stroke-linejoin:miter;stroke-miterlimit:4;stroke-dasharray:none;stroke-opacity:1" />
      <path
         id="rect4161"
         d="m 449.1759,-346.41803 21.21321,0 c 2.51831,0 4.54569,2.02738 4.54569,4.54569 l 0,17.17259 c 0,2.51831 -2.02738,4.54569 -4.54569,4.54569 l -21.21321,0 c -2.51831,0 -4.54568,-2.02738 -4.54568,-4.54569 l 0,-17.17259 c 0,-2.51831 2.02737,-4.54569 4.54568,-4.54569 z"
         style="opacity:1;fill:#c3c8cf;fill-opacity:1;stroke:none;stroke-width:6.06699991;stroke-linejoin:miter;stroke-miterlimit:4;stroke-dasharray:none;stroke-opacity:1" />
      <path
         inkscape:connector-curvature="0"
         id="path4171"
         d="m 482.51562,-339.83203 c -5.34821,-0.0821 -10.69749,-0.0195 -16.04296,0.1875 l 0.17382,4.49609 c 5.26447,-0.2039 10.53366,-0.2644 15.80079,-0.18359 6.34377,0.0973 12.5736,0.43286 18.29687,2.38672 5.68544,1.94093 10.98407,5.68088 13.94727,11.18945 2.38922,4.44156 3.2427,9.99665 3.99218,15.65234 0.75131,5.66937 1.49219,11.74821 4.22852,17.22071 2.08505,4.16997 5.23914,7.67314 9.05859,10.00195 l 2.34375,-3.8418 c -3.04055,-1.85389 -5.65544,-4.72896 -7.37695,-8.17187 -2.27377,-4.54742 -3.04047,-10.12239 -3.79297,-15.80078 -0.7543,-5.69207 -1.5873,-11.79487 -4.49023,-17.19141 -3.61524,-6.72071 -9.91031,-11.08144 -16.45703,-13.3164 -6.50889,-2.22207 -13.23356,-2.53001 -19.68165,-2.62891 z"
         style="color:#000000;font-style:normal;font-variant:normal;font-weight:normal;font-stretch:normal;font-size:medium;line-height:normal;font-family:sans-serif;text-indent:0;text-align:start;text-decoration:none;text-decoration-line:none;text-decoration-style:solid;text-decoration-color:#000000;letter-spacing:normal;word-spacing:normal;text-transform:none;direction:ltr;block-progression:tb;writing-mode:lr-tb;baseline-shift:baseline;text-anchor:start;white-space:normal;clip-rule:nonzero;display:inline;overflow:visible;visibility:visible;opacity:1;isolation:auto;mix-blend-mode:normal;color-interpolation:sRGB;color-interpolation-filters:linearRGB;solid-color:#000000;solid-opacity:1;fill:#c3c8cf;fill-opacity:1;fill-rule:evenodd;stroke:none;stroke-width:4.5;stroke-linecap:butt;stroke-linejoin:miter;stroke-miterlimit:4;stroke-dasharray:none;stroke-dashoffset:0;stroke-opacity:1;color-rendering:auto;image-rendering:auto;shape-rendering:auto;text-rendering:auto;enable-background:accumulate" />
      <path
         inkscape:connector-curvature="0"
         id="path4175"
         d="m 532.75586,-284.61914 c -10.06936,0.6544 -19.98365,3.56801 -28.7832,8.5332 -14.40737,8.12942 -25.0004,20.8916 -37.88672,29.61524 -21.39235,14.48194 -48.80878,18.04328 -74.97461,16.13086 -26.19649,-1.91466 -51.95377,-8.83255 -78.28125,-13.25586 -21.83972,-3.66932 -43.97368,-5.57866 -66.11914,-5.70508 l -0.0273,4.5 c 21.90383,0.12504 43.79897,2.01525 65.40039,5.64453 26.04116,4.37521 51.93437,11.34653 78.69922,13.30273 26.79551,1.95845 55.24466,-1.60365 77.82618,-16.89062 13.59987,-9.20669 24.12548,-21.83337 37.57421,-29.42188 10.92562,-6.16482 23.76984,-8.94977 36.26758,-7.86328 l 0.39063,-4.48437 c -3.35526,-0.29169 -6.72949,-0.3236 -10.08594,-0.10547 z"
         style="color:#000000;font-style:normal;font-variant:normal;font-weight:normal;font-stretch:normal;font-size:medium;line-height:normal;font-family:sans-serif;text-indent:0;text-align:start;text-decoration:none;text-decoration-line:none;text-decoration-style:solid;text-decoration-color:#000000;letter-spacing:normal;word-spacing:normal;text-transform:none;direction:ltr;block-progression:tb;writing-mode:lr-tb;baseline-shift:baseline;text-anchor:start;white-space:normal;clip-rule:nonzero;display:inline;overflow:visible;visibility:visible;opacity:1;isolation:auto;mix-blend-mode:normal;color-interpolation:sRGB;color-interpolation-filters:linearRGB;solid-color:#000000;solid-opacity:1;fill:#c3c8cf;fill-opacity:1;fill-rule:evenodd;stroke:none;stroke-width:4.5;stroke-linecap:butt;stroke-linejoin:miter;stroke-miterlimit:4;stroke-dasharray:none;stroke-dashoffset:0;stroke-opacity:1;color-rendering:auto;image-rendering:auto;shape-rendering:auto;text-rendering:auto;enable-background:accumulate" />
    </g>
    <path
       inkscape:connector-curvature="0"
       id="path4280"
       style="font-style:normal;font-variant:normal;font-weight:300;font-stretch:normal;font-size:medium;line-height:125%;font-family:Overpass;-inkscape-font-specification:'Overpass Light';letter-spacing:0px;word-spacing:0px;fill:#3f4148;fill-opacity:1;stroke:none;stroke-width:1px;stroke-linecap:butt;stroke-linejoin:miter;stroke-opacity:1"
       d="m 323.94339,-263.04283 0,14.43919 3.75419,0 c 5.1981,0 6.6214,-3.89858 6.6214,-7.2196 0,-3.56854 -1.65019,-7.21959 -6.53889,-7.21959 l -3.8367,0 z m 3.85733,13.13966 -2.41341,0 0,-11.84014 2.64031,0 c 3.42415,0 4.78556,2.9291 4.78556,5.92007 0,2.80533 -1.13451,5.92007 -5.01246,5.92007 z" />
    <path
       inkscape:connector-curvature="0"
       id="path4282"
       style="font-style:normal;font-variant:normal;font-weight:300;font-stretch:normal;font-size:medium;line-height:125%;font-family:Overpass;-inkscape-font-specification:'Overpass Light';letter-spacing:0px;word-spacing:0px;fill:#3f4148;fill-opacity:1;stroke:none;stroke-width:1px;stroke-linecap:butt;stroke-linejoin:miter;stroke-opacity:1"
       d="m 338.35647,-261.31013 c 0.55694,0 0.94887,-0.41254 0.94887,-0.94886 0,-0.55694 -0.39193,-0.99012 -0.94887,-0.99012 -0.53631,0 -0.94886,0.43318 -0.94886,0.99012 0,0.53632 0.41255,0.94886 0.94886,0.94886 z m -0.72195,12.70649 1.44392,0 0,-10.54061 -1.44392,0 0,10.54061 z" />
    <path
       inkscape:connector-curvature="0"
       id="path4284"
       style="font-style:normal;font-variant:normal;font-weight:300;font-stretch:normal;font-size:medium;line-height:125%;font-family:Overpass;-inkscape-font-specification:'Overpass Light';letter-spacing:0px;word-spacing:0px;fill:#3f4148;fill-opacity:1;stroke:none;stroke-width:1px;stroke-linecap:butt;stroke-linejoin:miter;stroke-opacity:1"
       d="m 345.78138,-244.21001 c 2.57842,-0.10313 4.95058,-1.09325 4.95058,-4.55865 l 0,-10.37559 -1.44392,0 0,0.99011 c -0.35067,-0.41254 -1.1964,-1.23764 -2.80533,-1.23764 -2.57843,0 -4.39365,2.04212 -4.39365,5.50752 0,3.67168 2.04212,5.52815 4.31114,5.52815 1.44392,0 2.28964,-0.55694 2.88784,-1.44392 l 0,1.60894 c 0,1.44391 -0.74259,2.66093 -4.16675,2.84658 l 0.66009,1.1345 z m 0.94886,-5.44563 c -1.79459,0 -3.13537,-1.52643 -3.13537,-4.22862 0,-2.70219 1.05199,-4.20799 3.13537,-4.20799 0.76321,0 1.9596,0.55694 2.5578,1.60893 l 0,5.07435 c -0.57758,1.09325 -1.69145,1.75333 -2.5578,1.75333 z" />
    <path
       inkscape:connector-curvature="0"
       id="path4286"
       style="font-style:normal;font-variant:normal;font-weight:300;font-stretch:normal;font-size:medium;line-height:125%;font-family:Overpass;-inkscape-font-specification:'Overpass Light';letter-spacing:0px;word-spacing:0px;fill:#3f4148;fill-opacity:1;stroke:none;stroke-width:1px;stroke-linecap:butt;stroke-linejoin:miter;stroke-opacity:1"
       d="m 355.19682,-261.31013 c 0.55694,0 0.94886,-0.41254 0.94886,-0.94886 0,-0.55694 -0.39192,-0.99012 -0.94886,-0.99012 -0.53631,0 -0.94886,0.43318 -0.94886,0.99012 0,0.53632 0.41255,0.94886 0.94886,0.94886 z m -0.72196,12.70649 1.44392,0 0,-10.54061 -1.44392,0 0,10.54061 z" />
    <path
       inkscape:connector-curvature="0"
       id="path4288"
       style="font-style:normal;font-variant:normal;font-weight:300;font-stretch:normal;font-size:medium;line-height:125%;font-family:Overpass;-inkscape-font-specification:'Overpass Light';letter-spacing:0px;word-spacing:0px;fill:#3f4148;fill-opacity:1;stroke:none;stroke-width:1px;stroke-linecap:butt;stroke-linejoin:miter;stroke-opacity:1"
       d="m 362.29168,-248.35611 c 0.80447,0 1.38204,-0.18565 1.91835,-0.47444 l 0.16503,-1.5058 c -0.39193,0.26816 -0.88698,0.61882 -1.58831,0.61882 -1.01075,0 -1.13452,-0.76321 -1.13452,-1.67081 l 0,-6.45638 2.68157,0 0,-1.29953 -2.68157,0 0,-4.35238 -1.44392,0.72195 0,3.63043 -1.79458,0 0,1.29953 1.79458,0 0,7.0752 c 0,1.38203 0.57758,2.41341 2.08337,2.41341 z" />
    <path
       inkscape:connector-curvature="0"
       id="path4290"
       style="font-style:normal;font-variant:normal;font-weight:300;font-stretch:normal;font-size:medium;line-height:125%;font-family:Overpass;-inkscape-font-specification:'Overpass Light';letter-spacing:0px;word-spacing:0px;fill:#3f4148;fill-opacity:1;stroke:none;stroke-width:1px;stroke-linecap:butt;stroke-linejoin:miter;stroke-opacity:1"
       d="m 373.12881,-248.60364 1.34078,0 0,-7.13709 c 0,-2.99097 -2.00085,-3.65105 -3.50666,-3.65105 -1.44391,0 -2.84658,0.61882 -3.69231,1.15514 l 0.41255,1.23764 c 0.78385,-0.53631 2.08337,-1.1345 3.13537,-1.1345 1.17577,0 2.31027,0.4538 2.31027,2.57842 l 0,0.88698 c -1.03137,-0.55694 -1.9596,-0.74259 -2.84658,-0.74259 -2.00086,0 -3.8367,1.052 -3.8367,3.48603 0,2.37216 1.46455,3.56855 3.58917,3.56855 1.13451,0 2.24839,-0.51569 3.09411,-1.2789 l 0,1.03137 z m -2.94972,-1.01075 c -1.52643,0 -2.39278,-0.92823 -2.39278,-2.31027 0,-1.52643 1.21702,-2.22776 2.64031,-2.22776 0.90761,0 2.02148,0.41255 2.70219,0.86636 l 0,2.04211 c -0.63945,0.78384 -1.67082,1.62956 -2.94972,1.62956 z" />
    <path
       inkscape:connector-curvature="0"
       id="path4292"
       style="font-style:normal;font-variant:normal;font-weight:300;font-stretch:normal;font-size:medium;line-height:125%;font-family:Overpass;-inkscape-font-specification:'Overpass Light';letter-spacing:0px;word-spacing:0px;fill:#3f4148;fill-opacity:1;stroke:none;stroke-width:1px;stroke-linecap:butt;stroke-linejoin:miter;stroke-opacity:1"
       d="m 377.88408,-248.60364 1.44391,0 0,-14.89299 -1.44391,0.70133 0,14.19166 z" />
    <path
       inkscape:connector-curvature="0"
       id="path4294"
       style="font-style:normal;font-variant:normal;font-weight:300;font-stretch:normal;font-size:medium;line-height:125%;font-family:Overpass;-inkscape-font-specification:'Overpass Light';letter-spacing:0px;word-spacing:0px;fill:#3f4148;fill-opacity:1;stroke:none;stroke-width:1px;stroke-linecap:butt;stroke-linejoin:miter;stroke-opacity:1"
       d="m 396.18413,-248.60364 1.46455,0 -5.05372,-14.43919 -1.11388,0 -5.01246,14.43919 1.5058,0 1.25827,-3.73356 5.63129,0 1.32015,3.73356 z m -1.75333,-5.01246 -4.76493,0 1.98023,-5.77568 c 0.12377,-0.35067 0.30942,-1.03137 0.39192,-1.29952 0.0619,0.26815 0.28879,0.94885 0.41255,1.29952 l 1.98023,5.77568 z" />
    <path
       inkscape:connector-curvature="0"
       id="path4296"
       style="font-style:normal;font-variant:normal;font-weight:300;font-stretch:normal;font-size:medium;line-height:125%;font-family:Overpass;-inkscape-font-specification:'Overpass Light';letter-spacing:0px;word-spacing:0px;fill:#3f4148;fill-opacity:1;stroke:none;stroke-width:1px;stroke-linecap:butt;stroke-linejoin:miter;stroke-opacity:1"
       d="m 400.74505,-248.60364 1.44392,0 0,-5.96133 c 0,-2.59905 1.5058,-3.38289 2.5578,-3.38289 0.68071,0 1.09325,0.2269 1.36141,0.39192 l 0.2269,-1.40266 c -0.28878,-0.20627 -0.8251,-0.43318 -1.48518,-0.43318 -1.29952,0 -2.1865,0.72196 -2.66093,1.7327 l 0,-1.48517 -1.44392,0 0,10.54061 z" />
    <path
       inkscape:connector-curvature="0"
       id="path4298"
       style="font-style:normal;font-variant:normal;font-weight:300;font-stretch:normal;font-size:medium;line-height:125%;font-family:Overpass;-inkscape-font-specification:'Overpass Light';letter-spacing:0px;word-spacing:0px;fill:#3f4148;fill-opacity:1;stroke:none;stroke-width:1px;stroke-linecap:butt;stroke-linejoin:miter;stroke-opacity:1"
       d="m 411.5638,-248.35611 c 0.80447,0 1.38204,-0.18565 1.91835,-0.47444 l 0.16502,-1.5058 c -0.39192,0.26816 -0.88697,0.61882 -1.58831,0.61882 -1.01074,0 -1.13451,-0.76321 -1.13451,-1.67081 l 0,-6.45638 2.68157,0 0,-1.29953 -2.68157,0 0,-4.35238 -1.44392,0.72195 0,3.63043 -1.79458,0 0,1.29953 1.79458,0 0,7.0752 c 0,1.38203 0.57757,2.41341 2.08337,2.41341 z" />
    <path
       inkscape:connector-curvature="0"
       id="path4300"
       style="font-style:normal;font-variant:normal;font-weight:300;font-stretch:normal;font-size:medium;line-height:125%;font-family:Overpass;-inkscape-font-specification:'Overpass Light';letter-spacing:0px;word-spacing:0px;fill:#3f4148;fill-opacity:1;stroke:none;stroke-width:1px;stroke-linecap:butt;stroke-linejoin:miter;stroke-opacity:1"
       d="m 421.6013,-263.04283 0,14.43919 5.1156,0 c 3.54791,0 4.5999,-2.08337 4.5999,-4.04298 0,-1.98023 -1.21701,-3.17662 -2.78469,-3.56854 1.36141,-0.51568 2.26901,-1.58831 2.26901,-3.05286 0,-1.87709 -1.03137,-3.77481 -4.41426,-3.77481 l -4.78556,0 z m 4.43489,6.31199 -2.99097,0 0,-5.01247 3.4654,0 c 2.41341,0 2.94972,1.25828 2.94972,2.43404 0,1.56768 -1.15513,2.57843 -3.42415,2.57843 z m 0.92823,6.82767 -3.9192,0 0,-5.5694 3.2385,0 c 2.94972,0 3.69231,1.42329 3.69231,2.94972 0,1.32015 -0.63945,2.61968 -3.01161,2.61968 z" />
    <path
       inkscape:connector-curvature="0"
       id="path4302"
       style="font-style:normal;font-variant:normal;font-weight:300;font-stretch:normal;font-size:medium;line-height:125%;font-family:Overpass;-inkscape-font-specification:'Overpass Light';letter-spacing:0px;word-spacing:0px;fill:#3f4148;fill-opacity:1;stroke:none;stroke-width:1px;stroke-linecap:butt;stroke-linejoin:miter;stroke-opacity:1"
       d="m 434.73033,-248.60364 1.44392,0 0,-14.89299 -1.44392,0.70133 0,14.19166 z" />
    <path
       inkscape:connector-curvature="0"
       id="path4304"
       style="font-style:normal;font-variant:normal;font-weight:300;font-stretch:normal;font-size:medium;line-height:125%;font-family:Overpass;-inkscape-font-specification:'Overpass Light';letter-spacing:0px;word-spacing:0px;fill:#3f4148;fill-opacity:1;stroke:none;stroke-width:1px;stroke-linecap:butt;stroke-linejoin:miter;stroke-opacity:1"
       d="m 443.78092,-248.35611 c 2.7022,0 4.51741,-2.06275 4.51741,-5.52815 0,-3.50666 -1.81521,-5.50752 -4.51741,-5.50752 -2.70219,0 -4.5174,2.06274 -4.5174,5.52814 0,3.50667 1.81521,5.50753 4.5174,5.50753 z m 0,-1.29953 c -1.9596,0 -3.0116,-1.58831 -3.0116,-4.208 0,-2.74344 1.052,-4.22861 3.0116,-4.22861 1.95961,0 3.01161,1.58831 3.01161,4.20799 0,2.64031 -1.09326,4.22862 -3.01161,4.22862 z" />
    <path
       inkscape:connector-curvature="0"
       id="path4306"
       style="font-style:normal;font-variant:normal;font-weight:300;font-stretch:normal;font-size:medium;line-height:125%;font-family:Overpass;-inkscape-font-specification:'Overpass Light';letter-spacing:0px;word-spacing:0px;fill:#3f4148;fill-opacity:1;stroke:none;stroke-width:1px;stroke-linecap:butt;stroke-linejoin:miter;stroke-opacity:1"
       d="m 454.27673,-244.21001 c 2.57842,-0.10313 4.95058,-1.09325 4.95058,-4.55865 l 0,-10.37559 -1.44392,0 0,0.99011 c -0.35066,-0.41254 -1.19639,-1.23764 -2.80533,-1.23764 -2.57842,0 -4.39363,2.04212 -4.39363,5.50752 0,3.67168 2.04211,5.52815 4.31112,5.52815 1.44392,0 2.28964,-0.55694 2.88784,-1.44392 l 0,1.60894 c 0,1.44391 -0.74259,2.66093 -4.16674,2.84658 l 0.66008,1.1345 z m 0.94886,-5.44563 c -1.79458,0 -3.13537,-1.52643 -3.13537,-4.22862 0,-2.70219 1.05201,-4.20799 3.13537,-4.20799 0.76322,0 1.9596,0.55694 2.5578,1.60893 l 0,5.07435 c -0.57757,1.09325 -1.69145,1.75333 -2.5578,1.75333 z" />
  </g>
</svg>
